PathFileType	4	(X/Y/Z)	1H_rest_med_right.trc
DataRate	CameraRate	NumFrames	NumMarkers	Units	OrigDataRate	OrigDataStartFrame	OrigNumFrames
250.00	250.00	8	18	mm	250.00	21961	29281
Frame#	Time	c7	r_should	l_should	clavicle	r_upa	r_elb_l	r_elb_m	r_low	r_wri_l	r_wri_m	r_met	l_upa	l_elb_l	l_elb_m	l_low	l_wri_l	l_wri_m	l_met
	X1	Y1	Z1	X2	Y2	Z2	X3	Y3	Z3	X4	Y4	Z4	X5	Y5	Z5	X6	Y6	Z6	X7	Y7	Z7	X8	Y8	Z8	X9	Y9	Z9	X10	Y10	Z10	X11	Y11	Z11	X12	Y12	Z12	X13	Y13	Z13	X14	Y14	Z14	X15	Y15	Z15	X16	Y16	Z16	X17	Y17	Z17	X18	Y18	Z18
21961	87.84000	612.47748	1418.61780	275.03873	663.09576	1363.16614	414.74594	653.38544	1375.51038	100.22077	748.54730	1287.25415	251.07547	712.03357	1178.05603	495.57495	716.50146	1110.75757	517.37085	752.69275	1062.72839	431.45953	797.99512	1211.79724	487.74271	810.89905	1273.16833	457.98553	872.66803	1237.66833	436.38855	860.69769	1344.70178	478.53033	655.25775	1185.64124	24.23522	672.23706	1077.61633	13.92978	620.44159	1039.24500	75.85471	717.86426	914.31354	18.94374	747.05389	842.74274	54.92132	684.59473	820.67896	22.64632	781.14789	757.42737	29.26072
21962	87.84400	612.46478	1418.60181	275.00528	663.08838	1363.16418	414.71625	653.37061	1375.50476	100.18987	748.54181	1287.25269	251.04356	712.05042	1178.05225	495.52948	716.51385	1110.75049	517.32782	753.04272	1062.98157	431.52478	798.01373	1211.80322	487.70428	810.91376	1273.17224	457.93777	872.68073	1237.67993	436.32465	860.71289	1344.70837	478.48163	655.24713	1185.63599	24.20600	672.22247	1077.60583	13.89661	620.43286	1039.23291	75.82394	717.86700	914.32068	18.90635	747.05652	842.75635	54.89449	684.61920	820.63684	22.62318	781.15240	757.42999	29.22815
21963	87.84800	612.45331	1418.59473	274.97150	663.08203	1363.15979	414.68579	653.35516	1375.49622	100.15900	748.53436	1287.25281	251.00940	712.09229	1178.08154	495.51578	716.54510	1110.77698	517.31696	752.63660	1062.67432	431.36111	798.05743	1211.83838	487.68903	810.92810	1273.17712	457.88608	872.68707	1237.68945	436.26434	860.72412	1344.71509	478.43018	655.23480	1185.62964	24.18056	672.20532	1077.60071	13.86355	620.44714	1039.24890	75.80851	717.86774	914.32550	18.86551	747.03345	842.78571	54.94826	684.72192	820.50500	22.61642	781.15967	757.43518	29.19195
21964	87.85200	612.44507	1418.59436	274.93979	663.07458	1363.15735	414.65253	653.34082	1375.49353	100.12391	748.52191	1287.24170	250.97316	712.14813	1178.12854	495.51620	716.58960	1110.82898	517.32812	752.63190	1062.65234	431.31204	798.10944	1211.87732	487.68677	810.93811	1273.17920	457.84171	872.69434	1237.69287	436.22104	860.73975	1344.71350	478.38562	655.22968	1185.62061	24.14639	672.19537	1077.60095	13.82847	620.48358	1039.28235	75.80290	717.86792	914.32019	18.82517	747.07562	842.82544	54.95552	684.76776	820.49750	22.61281	781.17352	757.43726	29.14793
21965	87.85600	612.44177	1418.59546	274.90222	663.07391	1363.15540	414.60782	653.33508	1375.49255	100.08302	748.50360	1287.22620	250.93454	712.18805	1178.16333	495.50723	716.63275	1110.87964	517.32666	752.71057	1062.68872	431.28882	798.14752	1211.91113	487.67407	810.95325	1273.18164	457.80167	872.70093	1237.68567	436.18448	860.74982	1344.70959	478.33652	655.23004	1185.61670	24.10877	672.19177	1077.60132	13.78652	620.52295	1039.31763	75.78180	717.86633	914.31329	18.78183	747.11633	842.85492	54.93897	684.79956	820.52222	22.59369	781.18915	757.43793	29.09858
21966	87.86000	612.44592	1418.60132	274.86395	663.07928	1363.15466	414.55957	653.33777	1375.49304	100.03260	748.48981	1287.21765	250.88525	712.20386	1178.17334	495.46179	716.65808	1110.90491	517.29059	752.76770	1062.71375	431.22910	798.16187	1211.92834	487.63831	810.96759	1273.18335	457.75693	872.71497	1237.67871	436.14731	860.75909	1344.71631	478.29019	655.23096	1185.61584	24.06726	672.18994	1077.60547	13.73654	620.53815	1039.33984	75.73770	717.86652	914.31427	18.73394	747.12921	842.85803	54.89447	684.81512	820.54590	22.54552	781.20557	757.44250	29.04268
21967	87.86400	612.45300	1418.61438	274.82285	663.08813	1363.15588	414.51910	653.34192	1375.49426	99.98538	748.48663	1287.20435	250.84198	712.19684	1178.16089	495.38766	716.66907	1110.88745	517.21191	752.75031	1062.68811	431.13992	798.16125	1211.91711	487.57547	810.98474	1273.18604	457.70978	872.73041	1237.67566	436.10300	860.77332	1344.72400	478.24530	655.23163	1185.62268	24.02840	672.19409	1077.60974	13.69096	620.53345	1039.33167	75.67719	717.86530	914.31976	18.68249	747.10785	842.83563	54.83069	684.81372	820.54865	22.48017	781.22156	757.44940	28.98492
21968	87.86800	612.45880	1418.61914	274.79010	663.09784	1363.15735	414.48288	653.34680	1375.48999	99.95103	748.48047	1287.18469	250.81322	712.18384	1178.10925	495.29919	716.66364	1110.83630	517.12323	752.93451	1062.80371	431.15335	798.14410	1211.87354	487.49551	811.00348	1273.18921	457.67880	872.74335	1237.67554	436.05609	860.80084	1344.72607	478.21274	655.23230	1185.61865	23.99166	672.19415	1077.60889	13.65122	620.49756	1039.29590	75.61015	717.86487	914.31409	18.63878	747.06866	842.79449	54.74624	684.79840	820.52112	22.41272	781.23285	757.45514	28.92964
